<svg xmlns="http://www.w3.org/2000/svg" xmlns:xlink="http://www.w3.org/1999/xlink" version="1.1" width="1000" height="1000" viewBox="0 0 1000 1000" xml:space="preserve">
<desc>Created with Fabric.js 3.5.0</desc>
<defs>
</defs>
<rect x="0" y="0" width="100%" height="100%" fill="#ffffff"/>
<g transform="matrix(2.3148 0 0 2.3148 520.6906 521.9842)" id="141081">
<g style="" vector-effect="non-scaling-stroke">
		<g transform="matrix(1 0 0 1 -490 -490)">
<rect style="stroke: none; stroke-width: 1; stroke-dasharray: none; stroke-linecap: butt; stroke-dashoffset: 0; stroke-linejoin: miter; stroke-miterlimit: 4; is-custom-font: none; font-file-url: none; fill: rgb(255,255,255); fill-opacity: 0; fill-rule: nonzero; opacity: 1;" x="-50" y="-50" rx="0" ry="0" width="100" height="100"/>
</g>
		<g transform="matrix(1 0 0 1 0 0)" id="a923a227-38c7-43b2-84c1-ca02f2b2e4c9">
<rect style="stroke: none; stroke-width: 1; stroke-dasharray: none; stroke-linecap: butt; stroke-dashoffset: 0; stroke-linejoin: miter; stroke-miterlimit: 4; is-custom-font: none; font-file-url: none; fill: rgb(255,255,255); fill-rule: nonzero; opacity: 1; visibility: hidden;" vector-effect="non-scaling-stroke" x="-540" y="-540" rx="0" ry="0" width="1080" height="1080"/>
</g>
		<g transform="matrix(2.81 0 0 2.81 0.0007 -0.0007)">
<path style="stroke: none; stroke-width: 1; stroke-dasharray: none; stroke-linecap: butt; stroke-dashoffset: 0; stroke-linejoin: miter; stroke-miterlimit: 10; is-custom-font: none; font-file-url: none; fill: rgb(28,54,106); fill-rule: nonzero; opacity: 1;" vector-effect="non-scaling-stroke" transform=" translate(-45.0003, -44.9997)" d="M 87.856 77.487 L 62.666 52.297 C 71.262 38.891999999999996 69.43299999999999 21.330999999999996 58.047999999999995 9.945999999999998 C 44.785999999999994 -3.3160000000000025 23.20799999999999 -3.3160000000000025 9.945999999999998 9.945999999999998 C -3.3150000000000013 23.206999999999997 -3.3150000000000013 44.786 9.945999999999998 58.047999999999995 C 21.33 69.43199999999999 38.891999999999996 71.264 52.297 62.666 L 77.487 87.856 C 78.917 89.285 80.794 90 82.672 90 C 84.55 90 86.42699999999999 89.285 87.856 87.856 C 90.715 84.997 90.715 80.346 87.856 77.487 z M 49.915 49.915 C 45.525999999999996 54.304 39.762 56.498 33.998 56.498 C 28.233999999999995 56.498 22.468999999999998 54.303999999999995 18.080999999999996 49.915 C 9.303999999999997 41.138 9.303999999999997 26.857 18.080999999999996 18.08 C 26.856999999999996 9.302999999999999 41.13799999999999 9.302999999999999 49.916 18.08 C 58.691 26.857 58.691 41.138 49.915 49.915 z" stroke-linecap="round"/>
</g>
		<g transform="matrix(2.81 0 0 2.81 -68.2716 -30.8827)">
<path style="stroke: none; stroke-width: 1; stroke-dasharray: none; stroke-linecap: butt; stroke-dashoffset: 0; stroke-linejoin: miter; stroke-miterlimit: 10; is-custom-font: none; font-file-url: none; fill: rgb(28,54,106); fill-rule: nonzero; opacity: 1;" vector-effect="non-scaling-stroke" transform=" translate(-20.703, -34.0155)" d="M 22.958 46.877 C 22.456999999999997 46.877 21.956 46.686 21.573999999999998 46.304 C 14.797999999999998 39.528000000000006 14.797999999999998 28.503000000000004 21.573999999999998 21.727 C 22.337 20.963 23.578 20.963 24.340999999999998 21.727 C 25.104999999999997 22.491 25.104999999999997 23.73 24.340999999999998 24.494 C 19.090999999999998 29.744 19.092 38.286 24.340999999999998 43.537 C 25.104999999999997 44.301 25.104999999999997 45.54 24.340999999999998 46.304 C 23.96 46.686 23.459 46.877 22.958 46.877 z" stroke-linecap="round"/>
</g>
		<g transform="matrix(2.81 0 0 2.81 10.387 -29.723)">
<path style="stroke: none; stroke-width: 1; stroke-dasharray: none; stroke-linecap: butt; stroke-dashoffset: 0; stroke-linejoin: miter; stroke-miterlimit: 10; is-custom-font: none; font-file-url: none; fill: rgb(28,54,106); fill-rule: nonzero; opacity: 1;" vector-effect="non-scaling-stroke" transform=" translate(-48.6989, -34.4254)" d="M 48.109 41.888 C 47.86 41.888 47.605000000000004 41.839999999999996 47.361000000000004 41.738 C 46.36300000000001 41.324 45.889 40.179 46.30200000000001 39.181 C 47.57300000000001 36.116 47.67000000000001 32.70099999999999 46.574000000000005 29.564999999999998 C 46.21900000000001 28.544999999999998 46.75600000000001 27.429 47.77700000000001 27.072999999999997 C 48.79600000000001 26.715999999999998 49.912000000000006 27.254999999999995 50.27000000000001 28.275 C 51.68200000000001 32.32 51.55700000000001 36.726 49.91700000000001 40.68 C 49.605 41.433 48.877 41.888 48.109 41.888 z" stroke-linecap="round"/>
</g>
</g>
</g>
</svg>